<svg width="45" height="45" viewBox="0 0 45 45" fill="none" xmlns="http://www.w3.org/2000/svg">
<g clip-path="url(#clip0_68_73)">
<path d="M29.496 26.672C29.496 27.696 29.216 28.528 28.656 29.168C28.112 29.808 27.376 30.28 26.448 30.584C25.52 30.888 24.496 31.04 23.376 31.04H15V14H24.888C25.688 14 26.376 14.216 26.952 14.648C27.544 15.064 27.992 15.608 28.296 16.28C28.616 16.952 28.776 17.648 28.776 18.368C28.776 19.152 28.568 19.912 28.152 20.648C27.752 21.384 27.144 21.936 26.328 22.304C27.304 22.592 28.072 23.096 28.632 23.816C29.208 24.536 29.496 25.488 29.496 26.672ZM24.744 25.712C24.744 25.424 24.688 25.176 24.576 24.968C24.48 24.744 24.344 24.568 24.168 24.44C23.992 24.312 23.784 24.248 23.544 24.248H19.68V27.104H23.376C23.632 27.104 23.864 27.048 24.072 26.936C24.28 26.824 24.44 26.664 24.552 26.456C24.68 26.248 24.744 26 24.744 25.712ZM19.68 17.984V20.6H22.872C23.08 20.6 23.28 20.568 23.472 20.504C23.664 20.424 23.824 20.288 23.952 20.096C24.08 19.904 24.144 19.632 24.144 19.28C24.144 18.96 24.088 18.712 23.976 18.536C23.88 18.344 23.744 18.208 23.568 18.128C23.408 18.032 23.224 17.984 23.016 17.984H19.68Z" fill="#EEF8FF"/>
</g>
<defs>
<clipPath id="clip0_68_73">
<rect width="45" height="45" fill="white"/>
</clipPath>
</defs>
</svg>
