<svg width="45" height="45" viewBox="0 0 45 45" fill="none" xmlns="http://www.w3.org/2000/svg">
<g clip-path="url(#clip0_68_51)">
<path d="M22.5339 14V31.3979H19.3134V23.9732H11.744V31.3979H8.5V14H11.744V21.0327H19.3134V14H22.5339Z" fill="#EEF8FF"/>
<path d="M33.2325 25.6149C33.8907 25.7293 34.4627 25.9907 34.9485 26.3991C35.4343 26.7911 35.8105 27.2976 36.0769 27.9183C36.359 28.5391 36.5 29.2252 36.5 29.9767C36.5 30.9895 36.2493 31.8716 35.7478 32.6231C35.2463 33.3746 34.5332 33.9545 33.6086 34.3629C32.6996 34.7876 31.6261 35 30.3881 35C29.1971 35 28.1392 34.7958 27.2146 34.3874C26.3056 33.9953 25.5456 33.4154 24.9344 32.6476L26.7209 30.3197C27.1284 30.8425 27.6142 31.2509 28.1784 31.5449C28.7582 31.8553 29.4635 32.0105 30.2941 32.0105C31.25 32.0105 31.9788 31.8063 32.4802 31.3979C32.9817 31.0058 33.2325 30.4096 33.2325 29.6091C33.2325 28.7596 32.9426 28.1062 32.3627 27.6488C31.7829 27.1914 30.9053 26.9627 29.7299 26.9627H29.0717V24.5123H29.8004C30.7564 24.5123 31.5008 24.2835 32.0336 23.8261C32.5821 23.3687 32.8564 22.797 32.8564 22.1109C32.8564 21.6698 32.7545 21.3022 32.5508 21.0082C32.347 20.7141 32.0649 20.4936 31.7045 20.3466C31.3597 20.1995 30.9523 20.126 30.4821 20.126C29.7769 20.126 29.1344 20.2976 28.5545 20.6406C27.9747 20.9837 27.5045 21.4656 27.1441 22.0863L25.1695 19.783C25.4986 19.2765 25.9452 18.8436 26.5094 18.4842C27.0892 18.1085 27.7474 17.8145 28.484 17.6021C29.2362 17.3897 30.0198 17.2835 30.8347 17.2835C31.9004 17.2835 32.8329 17.4632 33.6321 17.8226C34.447 18.182 35.0817 18.6884 35.5362 19.3419C35.9907 19.9953 36.2179 20.755 36.2179 21.6208C36.2179 22.2579 36.0925 22.8623 35.8418 23.4341C35.591 24.0058 35.2384 24.4877 34.784 24.8798C34.3452 25.2555 33.828 25.5006 33.2325 25.6149Z" fill="#EEF8FF"/>
</g>
<defs>
<clipPath id="clip0_68_51">
<rect width="45" height="45" fill="white"/>
</clipPath>
</defs>
</svg>
