<svg width="45" height="45" viewBox="0 0 45 45" fill="none" xmlns="http://www.w3.org/2000/svg">
<g clip-path="url(#clip0_68_50)">
<path d="M22.5339 14V31H19.3134V23.7451H11.744V31H8.5V14H11.744V20.8718H19.3134V14H22.5339Z" fill="#EEF8FF"/>
<path d="M25.1695 31C25.1695 30.2817 25.2243 29.6352 25.334 29.0606C25.4437 28.4859 25.6318 27.9512 25.8982 27.4563C26.1803 26.9615 26.5564 26.4986 27.0265 26.0676C27.5124 25.6207 28.1235 25.1897 28.8601 24.7746C29.5026 24.4235 30.0668 24.1202 30.5526 23.8648C31.0385 23.5934 31.4459 23.346 31.775 23.1225C32.1198 22.8991 32.3784 22.6756 32.5508 22.4521C32.7232 22.2127 32.8093 21.9413 32.8093 21.638C32.8093 21.3188 32.7232 21.0315 32.5508 20.7761C32.3784 20.5047 32.1355 20.2892 31.822 20.1296C31.5086 19.97 31.1168 19.8901 30.6467 19.8901C30.2706 19.8901 29.9179 19.938 29.5888 20.0338C29.2754 20.1296 28.9776 20.2653 28.6956 20.4408C28.4291 20.6164 28.1784 20.816 27.9433 21.0394C27.7083 21.2469 27.4967 21.4704 27.3086 21.7099L25.3105 19.3634C25.5299 19.1399 25.8198 18.9005 26.1803 18.6451C26.5564 18.3737 26.9952 18.1263 27.4967 17.9028C28.0138 17.6634 28.578 17.4718 29.1892 17.3282C29.8161 17.1685 30.4821 17.0887 31.1873 17.0887C32.253 17.0887 33.162 17.2643 33.9142 17.6155C34.6664 17.9507 35.2384 18.4216 35.6302 19.0282C36.0377 19.6347 36.2414 20.3451 36.2414 21.1592C36.2414 21.7178 36.1396 22.2127 35.9358 22.6437C35.7321 23.0746 35.4735 23.4577 35.1601 23.793C34.8466 24.1122 34.5019 24.3995 34.1258 24.6549C33.7653 24.9103 33.4127 25.1338 33.0679 25.3254C32.5821 25.5808 32.1433 25.8202 31.7515 26.0437C31.3597 26.2512 31.015 26.4667 30.7172 26.6901C30.4194 26.8977 30.153 27.1131 29.9179 27.3366C29.6985 27.5601 29.5026 27.8155 29.3303 28.1028H36.5V31H25.1695Z" fill="#EEF8FF"/>
</g>
<defs>
<clipPath id="clip0_68_50">
<rect width="45" height="45" fill="white"/>
</clipPath>
</defs>
</svg>
