<svg width="45" height="45" viewBox="0 0 45 45" fill="none" xmlns="http://www.w3.org/2000/svg">
<g clip-path="url(#clip0_68_49)">
<path d="M23.1256 14V31H19.8841V23.7451H12.2652V31H9V14H12.2652V20.8718H19.8841V14H23.1256Z" fill="#EEF8FF"/>
<path d="M36 28.1028V31H26.3936V28.1028H29.7535V20.8479C29.6115 21.0394 29.3907 21.239 29.091 21.4465C28.7913 21.638 28.4521 21.8216 28.0736 21.9972C27.695 22.1728 27.3164 22.3164 26.9378 22.4282C26.5593 22.5399 26.2201 22.5958 25.9204 22.5958V19.6028C26.2043 19.6028 26.5435 19.515 26.9378 19.3394C27.348 19.1479 27.7502 18.9244 28.1445 18.669C28.5547 18.4136 28.9017 18.1662 29.1856 17.9268C29.4853 17.6714 29.6746 17.4718 29.7535 17.3282H32.9951V28.1028H36Z" fill="#EEF8FF"/>
</g>
<defs>
<clipPath id="clip0_68_49">
<rect width="45" height="45" fill="white"/>
</clipPath>
</defs>
</svg>
