<svg width="45" height="45" viewBox="0 0 45 45" fill="none" xmlns="http://www.w3.org/2000/svg">
<g clip-path="url(#clip0_68_74)">
<path d="M17 31L17.1802 29.9284L19.1021 29.523C19.2022 29.2334 19.3223 28.7797 19.4625 28.1618C19.6226 27.544 19.8428 26.598 20.1231 25.3237L21.3544 19.8211C21.6346 18.5082 21.8248 17.5236 21.9249 16.8671C22.045 16.1914 22.1151 15.728 22.1351 15.477L20.3934 15.0716L20.7237 14H27L26.8498 15.0716L24.8979 15.477C24.8378 15.728 24.7077 16.201 24.5075 16.8961C24.3273 17.5718 24.0971 18.5468 23.8168 19.8211L22.6156 25.3237C22.4154 26.2504 22.2553 26.9938 22.1351 27.5537C22.035 28.0943 21.955 28.519 21.8949 28.8279C21.8549 29.1175 21.8248 29.3492 21.8048 29.523L23.5465 29.9284L23.2162 31H17Z" fill="#EEF8FF"/>
</g>
<defs>
<clipPath id="clip0_68_74">
<rect width="45" height="45" fill="white"/>
</clipPath>
</defs>
</svg>
