<svg width="45" height="45" viewBox="0 0 45 45" fill="none" xmlns="http://www.w3.org/2000/svg">
<g clip-path="url(#clip0_68_76)">
<path fill-rule="evenodd" clip-rule="evenodd" d="M26.928 18.584C26.816 18.472 26.608 18.32 26.304 18.128C26.016 17.936 25.656 17.752 25.224 17.576C24.808 17.4 24.352 17.248 23.856 17.12C23.36 16.976 22.856 16.904 22.344 16.904C21.448 16.904 20.768 17.072 20.304 17.408C19.856 17.744 19.632 18.216 19.632 18.824C19.632 19.288 19.776 19.656 20.064 19.928C20.1496 20.0089 20.248 20.0862 20.359 20.16H16.2814C16.2431 19.9063 16.224 19.637 16.224 19.352C16.224 18.184 16.496 17.208 17.04 16.424C17.6 15.624 18.352 15.024 19.296 14.624C20.24 14.208 21.288 14 22.44 14C23.24 14 23.992 14.088 24.696 14.264C25.416 14.44 26.088 14.672 26.712 14.96C27.336 15.248 27.896 15.56 28.392 15.896L26.928 18.584ZM25.4056 26.16H28.9908C28.9916 26.2023 28.992 26.245 28.992 26.288C28.992 27.2 28.824 27.984 28.488 28.64C28.152 29.28 27.688 29.8 27.096 30.2C26.504 30.6 25.832 30.896 25.08 31.088C24.328 31.264 23.528 31.352 22.68 31.352C21.832 31.352 20.984 31.264 20.136 31.088C19.288 30.912 18.472 30.664 17.688 30.344C16.904 30.008 16.184 29.608 15.528 29.144L16.992 26.288C17.136 26.432 17.392 26.624 17.76 26.864C18.128 27.088 18.576 27.32 19.104 27.56C19.632 27.784 20.208 27.976 20.832 28.136C21.456 28.296 22.088 28.376 22.728 28.376C23.624 28.376 24.304 28.224 24.768 27.92C25.232 27.616 25.464 27.184 25.464 26.624C25.464 26.4575 25.4445 26.3028 25.4056 26.16ZM14 24.66H31V21.66H14V24.66Z" fill="#EEF8FF"/>
</g>
<defs>
<clipPath id="clip0_68_76">
<rect width="45" height="45" fill="white"/>
</clipPath>
</defs>
</svg>
