<svg width="45" height="45" viewBox="0 0 45 45" fill="none" xmlns="http://www.w3.org/2000/svg">
<g clip-path="url(#clip0_68_53)">
<path d="M12.5191 33L12 31.8946C13.0564 31.4632 13.8031 30.9869 14.2403 30.4657C14.6774 29.9444 14.8959 29.3783 14.8959 28.7672C14.8959 28.3897 14.8231 28.0752 14.6774 27.8235C14.5135 27.5719 14.3131 27.3472 14.0763 27.1495C13.8396 26.9698 13.6028 26.781 13.366 26.5833C13.1292 26.4036 12.938 26.1789 12.7923 25.9093C12.6284 25.6397 12.5464 25.2892 12.5464 24.8578C12.5464 24.2467 12.7832 23.7255 13.2567 23.2941C13.7121 22.8627 14.304 22.6471 15.0325 22.6471C15.4697 22.6471 15.9068 22.7639 16.3439 22.9975C16.7628 23.2312 17.118 23.5997 17.4094 24.1029C17.6826 24.6242 17.8192 25.3072 17.8192 26.152C17.8192 27.1225 17.628 28.0392 17.2455 28.902C16.8448 29.7647 16.2529 30.5466 15.4697 31.2475C14.6865 31.9485 13.703 32.5327 12.5191 33ZM18.994 33L18.4749 31.8946C19.5313 31.4632 20.278 30.9869 20.7152 30.4657C21.1523 29.9444 21.3708 29.3783 21.3708 28.7672C21.3708 28.3897 21.298 28.0752 21.1523 27.8235C20.9884 27.5719 20.788 27.3472 20.5512 27.1495C20.3145 26.9698 20.0777 26.781 19.8409 26.5833C19.6041 26.4036 19.4129 26.1789 19.2672 25.9093C19.1033 25.6397 19.0213 25.2892 19.0213 24.8578C19.0213 24.2467 19.2581 23.7255 19.7316 23.2941C20.187 22.8627 20.7789 22.6471 21.5075 22.6471C21.9446 22.6471 22.3817 22.7639 22.8188 22.9975C23.2377 23.2312 23.5929 23.5997 23.8843 24.1029C24.1575 24.6242 24.2941 25.3072 24.2941 26.152C24.2941 27.1225 24.1029 28.0392 23.7204 28.902C23.3197 29.7647 22.7278 30.5466 21.9446 31.2475C21.1614 31.9485 20.1779 32.5327 18.994 33Z" fill="#EEF8FF"/>
<path fill-rule="evenodd" clip-rule="evenodd" d="M27.0715 11H23.355L19.673 20.9H23.0611L25.2133 14.7663L27.8148 22.4834H25.75V25.0382H28.4784L30.2305 29.7H34L27.0715 11Z" fill="#EEF8FF"/>
</g>
<defs>
<clipPath id="clip0_68_53">
<rect width="45" height="45" fill="white"/>
</clipPath>
</defs>
</svg>
