<svg width="45" height="45" viewBox="0 0 45 45" fill="none" xmlns="http://www.w3.org/2000/svg">
<g clip-path="url(#clip0_68_52)">
<path d="M24.9518 16.8609H19.593V30.7872H16.3588V16.8609H11V14H24.9518V16.8609Z" fill="#EEF8FF"/>
<path d="M34 30.1488C33.7325 30.2592 33.4098 30.3853 33.0321 30.5271C32.6544 30.669 32.2452 30.7793 31.8045 30.8581C31.3796 30.9527 30.9468 31 30.5061 31C29.9238 31 29.3887 30.8975 28.9009 30.6926C28.413 30.4877 28.0195 30.1646 27.7205 29.7232C27.4372 29.2661 27.2956 28.675 27.2956 27.9499V20.8331H25.6667V18.3978H27.2956V14.3783H30.4589V18.3978H33.0557V20.8331H30.4589V26.886C30.4747 27.3115 30.5927 27.6189 30.813 27.8081C31.0334 27.9972 31.3088 28.0918 31.6393 28.0918C31.9698 28.0918 32.2924 28.0366 32.6072 27.9263C32.9219 27.8159 33.1737 27.7214 33.3626 27.6426L34 30.1488Z" fill="#EEF8FF"/>
</g>
<defs>
<clipPath id="clip0_68_52">
<rect width="45" height="45" fill="white"/>
</clipPath>
</defs>
</svg>
