<svg width="46" height="45" viewBox="0 0 46 45" fill="none" xmlns="http://www.w3.org/2000/svg">
<path fill-rule="evenodd" clip-rule="evenodd" d="M18.984 30.488C19.944 30.936 21.104 31.16 22.464 31.16C23.776 31.16 24.904 30.944 25.848 30.512C26.792 30.064 27.56 29.456 28.152 28.688C28.76 27.904 29.2 27 29.472 25.976C29.76 24.952 29.904 23.856 29.904 22.688V14H26.616V22.688C26.616 23.376 26.544 24.056 26.4 24.728C26.256 25.384 26.024 25.976 25.704 26.504C25.4 27.032 24.976 27.456 24.432 27.776C23.904 28.08 23.24 28.232 22.44 28.232C21.656 28.232 21 28.08 20.472 27.776C19.944 27.472 19.52 27.056 19.2 26.528C18.88 26 18.648 25.408 18.504 24.752C18.376 24.08 18.312 23.392 18.312 22.688V14H15V22.688C15 23.792 15.136 24.856 15.408 25.88C15.68 26.888 16.104 27.792 16.68 28.592C17.272 29.392 18.04 30.024 18.984 30.488ZM15.464 36.54H29.464V33.54H15.464V36.54Z" fill="#EEF8FF"/>
</svg>
