<svg width="195" height="67" viewBox="0 0 195 67" fill="none" xmlns="http://www.w3.org/2000/svg">
<g clip-path="url(#clip0_50_1794)">
<path d="M35 29.8794C36.4277 27.1703 37.2812 23.7362 37.2812 20L54.7133 20C54.7133 23.7362 55.5668 27.1703 56.9944 29.8794L46.4754 46.9543L46.4754 32.383C47.5666 32.1616 48.3879 31.1968 48.3879 30.0403C48.3879 28.72 47.3176 27.6498 45.9972 27.6498C44.6769 27.6498 43.6065 28.72 43.6065 30.0403C43.6065 31.1968 44.4279 32.1616 45.5191 32.383L45.5191 46.9543L35 29.8794Z" fill="#96ADBE"/>
<path d="M68.0982 40.3754C68.0289 40.3053 67.9943 40.1213 67.9943 39.8234C67.9943 39.5431 68.0289 39.4029 68.0982 39.4029C68.2368 39.4029 68.436 39.3678 68.6958 39.2977C68.9556 39.2101 69.1981 39.1138 69.4233 39.0086C69.6485 38.9035 69.7698 38.8159 69.7871 38.7458C69.9083 38.2552 69.969 37.5893 69.969 36.7483V26.3138C69.969 25.9107 69.9516 25.5515 69.917 25.2361C69.8997 24.9207 69.8737 24.6491 69.8391 24.4214C69.7698 24.141 69.3194 24.0008 68.4879 24.0008H68.2541C68.1502 24.0008 68.0982 23.8256 68.0982 23.4752C68.0982 23.1773 68.1502 23.0283 68.2541 23.0283C69.2588 22.9407 70.2028 22.7918 71.0862 22.5815C71.987 22.3713 72.6279 22.2048 73.009 22.0821L73.2688 22.0033H73.3208C73.3901 22.0033 73.4594 22.0559 73.5286 22.161C73.5979 22.2661 73.6412 22.3625 73.6586 22.4501C73.468 23.2736 73.3727 24.1585 73.3727 25.1047L73.3468 36.354C73.3468 37.5105 73.4074 38.3077 73.5286 38.7458C73.5633 38.8159 73.6932 38.9035 73.9184 39.0086C74.1436 39.1138 74.3774 39.2101 74.6199 39.2977C74.8798 39.3678 75.0616 39.4029 75.1656 39.4029C75.2002 39.4029 75.2262 39.473 75.2435 39.6131C75.2608 39.7533 75.2695 39.9023 75.2695 40.06C75.2695 40.2177 75.2522 40.3228 75.2175 40.3754C75.1136 40.3754 74.9144 40.3578 74.6199 40.3228C74.3255 40.3053 73.979 40.2877 73.5806 40.2702C73.1995 40.2352 72.8358 40.2089 72.4893 40.1914C72.1429 40.1739 71.8657 40.1651 71.6579 40.1651C71.45 40.1651 71.1642 40.1739 70.8004 40.1914C70.454 40.2089 70.0902 40.2352 69.7091 40.2702C69.3281 40.2877 68.9903 40.3053 68.6958 40.3228C68.4013 40.3578 68.2021 40.3754 68.0982 40.3754Z" fill="#96ADBE"/>
<path d="M82.7786 40.4542C81.6527 40.4542 80.622 40.1914 79.6866 39.6657C78.7685 39.1225 78.0324 38.4041 77.4781 37.5105C76.9411 36.5993 76.6726 35.5918 76.6726 34.4879C76.6726 33.3665 76.9411 32.3589 77.4781 31.4653C78.0324 30.5717 78.7685 29.862 79.6866 29.3363C80.622 28.7932 81.6527 28.5216 82.7786 28.5216C83.9218 28.5216 84.9525 28.7932 85.8706 29.3363C86.7886 29.862 87.5161 30.5717 88.0531 31.4653C88.6074 32.3589 88.8846 33.3665 88.8846 34.4879C88.8846 35.5918 88.6161 36.5993 88.0791 37.5105C87.5421 38.4041 86.8059 39.1225 85.8706 39.6657C84.9525 40.1914 83.9218 40.4542 82.7786 40.4542ZM83.0384 39.0086C83.5234 39.0086 83.9218 38.8422 84.2336 38.5092C84.5454 38.1763 84.7706 37.7383 84.9092 37.1951C85.0651 36.6344 85.143 36.0386 85.143 35.4078C85.143 31.7807 84.2336 29.9671 82.4148 29.9671C81.9298 29.9671 81.5314 30.1424 81.2196 30.4928C80.9251 30.8433 80.7086 31.2988 80.57 31.8595C80.4315 32.4203 80.3622 33.0248 80.3622 33.6731C80.3622 37.2301 81.2542 39.0086 83.0384 39.0086Z" fill="#96ADBE"/>
<path d="M94.8607 46C93.9946 46 93.2064 45.8773 92.4962 45.632C91.786 45.4042 91.2231 45.0713 90.8073 44.6333C90.3916 44.1952 90.1837 43.6871 90.1837 43.1088C90.1837 42.7233 90.3829 42.3116 90.7813 41.8735C91.1971 41.4355 91.7081 41.1201 92.3143 40.9273C91.864 40.7346 91.4569 40.4279 91.0931 40.0074C90.7294 39.5693 90.5475 39.0962 90.5475 38.5881C90.5475 38.15 90.738 37.7733 91.1191 37.4579C91.5175 37.1425 91.9852 36.8359 92.5222 36.538C92.1931 36.3452 91.8726 36.0561 91.5608 35.6706C91.249 35.2851 90.9979 34.8471 90.8073 34.3565C90.6168 33.8483 90.5215 33.3489 90.5215 32.8583C90.5215 31.8946 90.738 31.0886 91.1711 30.4402C91.6041 29.7919 92.1844 29.3013 92.9119 28.9684C93.6568 28.6355 94.4796 28.469 95.3803 28.469C96.0212 28.469 96.7574 28.5829 97.5889 28.8107C98.0046 28.9333 98.377 29.0209 98.7062 29.0735C99.0526 29.1261 99.3471 29.1524 99.5896 29.1524H101.019C101.053 29.1524 101.105 29.2312 101.175 29.3889C101.261 29.5466 101.339 29.7131 101.408 29.8883C101.478 30.046 101.512 30.1687 101.512 30.2563C101.512 30.5016 101.46 30.6242 101.356 30.6242H99.8234C99.7541 30.6418 99.7195 30.668 99.7195 30.7031L99.9274 31.4127C99.9793 31.6405 100.023 31.8683 100.057 32.0961C100.092 32.3239 100.109 32.5342 100.109 32.7269C100.109 33.4628 99.9014 34.1637 99.4856 34.8296C99.0872 35.4954 98.5416 36.0474 97.8487 36.4854C97.1558 36.906 96.359 37.1162 95.4583 37.1162C95.1118 37.1162 94.7914 37.1075 94.4969 37.0899C94.2024 37.0549 93.9339 37.0198 93.6914 36.9848C93.4663 37.0549 93.3017 37.1776 93.1978 37.3528C93.1111 37.528 93.0678 37.6682 93.0678 37.7733C93.0678 37.931 93.2151 38.0537 93.5096 38.1413C93.7521 38.2114 94.1158 38.2727 94.6008 38.3253C95.0859 38.3778 95.5709 38.4129 96.0559 38.4304C96.5409 38.4479 96.9133 38.4567 97.1732 38.4567C99.9274 38.5793 101.322 39.4992 101.356 41.2164C101.356 41.8648 101.166 42.478 100.785 43.0563C100.421 43.6345 99.9187 44.1426 99.2778 44.5807C98.6542 45.0188 97.9526 45.3604 97.1732 45.6058C96.411 45.8686 95.6402 46 94.8607 46ZM95.3543 35.7495C96.0126 35.7495 96.411 35.5042 96.5496 35.0136C96.6881 34.5229 96.7574 33.9272 96.7574 33.2263C96.7574 32.1049 96.6535 31.2638 96.4456 30.7031C96.2378 30.1424 95.822 29.862 95.1984 29.862C94.7827 29.862 94.4796 29.9847 94.289 30.23C94.0985 30.4753 93.9772 30.7907 93.9253 31.1762C93.8906 31.5617 93.8733 31.9734 93.8733 32.4115V32.5429C93.8733 33.1036 93.908 33.6293 93.9772 34.1199C94.0465 34.6105 94.1851 35.0048 94.393 35.3027C94.6008 35.6005 94.9213 35.7495 95.3543 35.7495ZM95.3024 44.3967C96.2031 44.3967 96.9306 44.2303 97.485 43.8973C98.0566 43.5644 98.3424 43.065 98.3424 42.3992C98.3424 41.6107 96.8873 41.2164 93.9772 41.2164C93.5442 41.3391 93.2151 41.488 92.9899 41.6632C92.7647 41.8385 92.6521 42.1276 92.6521 42.5306C92.6521 43.0563 92.9206 43.4943 93.4576 43.8448C94.0119 44.2127 94.6268 44.3967 95.3024 44.3967Z" fill="#96ADBE"/>
<path d="M105.332 40.5068C105.297 40.5068 105.211 40.463 105.072 40.3754C104.933 40.3053 104.803 40.2177 104.682 40.1125C104.561 40.0074 104.5 39.9285 104.5 39.876C104.5 39.7708 104.535 39.4554 104.604 38.9298C104.674 38.4041 104.708 37.7295 104.708 36.906V26.3138C104.708 25.5778 104.656 24.947 104.552 24.4214C104.483 24.141 104.033 24.0008 103.201 24.0008H102.967C102.863 24.0008 102.811 23.8256 102.811 23.4752C102.811 23.1773 102.863 23.0283 102.967 23.0283C103.972 22.9407 104.916 22.7918 105.8 22.5815C106.7 22.3713 107.341 22.2048 107.722 22.0821L107.982 22.0033H108.034C108.103 22.0033 108.173 22.0559 108.242 22.161C108.311 22.2661 108.355 22.3625 108.372 22.4501C108.181 23.2736 108.086 24.1585 108.086 25.1047V28.9421C108.086 29.1173 108.095 29.2312 108.112 29.2838C108.129 29.3188 108.173 29.3188 108.242 29.2838C108.883 28.7756 109.636 28.5216 110.502 28.5216C111.542 28.5216 112.494 28.7844 113.361 29.3101C114.227 29.8182 114.92 30.5103 115.439 31.3864C115.959 32.2626 116.219 33.2438 116.219 34.3302C116.219 35.4867 115.942 36.5292 115.387 37.4579C114.85 38.3866 114.123 39.1225 113.205 39.6657C112.287 40.2089 111.256 40.4805 110.113 40.4805C109.489 40.4805 108.995 40.4367 108.632 40.3491C108.285 40.279 107.982 40.2089 107.722 40.1388C107.462 40.0512 107.142 40.0074 106.761 40.0074C106.501 40.0074 106.233 40.095 105.955 40.2702C105.678 40.4279 105.47 40.5068 105.332 40.5068ZM110.191 39.0612C110.97 39.0612 111.542 38.7107 111.906 38.0099C112.287 37.2914 112.477 36.354 112.477 35.1975C112.477 31.8157 111.724 30.1248 110.217 30.1248C109.541 30.1248 109.013 30.3176 108.632 30.7031C108.268 31.0886 108.086 31.4916 108.086 31.9121V36.8797C108.086 37.5806 108.285 38.1238 108.684 38.5092C109.082 38.8772 109.584 39.0612 110.191 39.0612Z" fill="#96ADBE"/>
<path d="M123.624 40.4542C122.498 40.4542 121.467 40.1914 120.532 39.6657C119.614 39.1225 118.878 38.4041 118.323 37.5105C117.786 36.5993 117.518 35.5918 117.518 34.4879C117.518 33.3665 117.786 32.3589 118.323 31.4653C118.878 30.5717 119.614 29.862 120.532 29.3363C121.467 28.7932 122.498 28.5216 123.624 28.5216C124.767 28.5216 125.798 28.7932 126.716 29.3363C127.634 29.862 128.361 30.5717 128.898 31.4653C129.453 32.3589 129.73 33.3665 129.73 34.4879C129.73 35.5918 129.461 36.5993 128.924 37.5105C128.387 38.4041 127.651 39.1225 126.716 39.6657C125.798 40.1914 124.767 40.4542 123.624 40.4542ZM123.884 39.0086C124.369 39.0086 124.767 38.8422 125.079 38.5092C125.391 38.1763 125.616 37.7383 125.754 37.1951C125.91 36.6344 125.988 36.0386 125.988 35.4078C125.988 31.7807 125.079 29.9671 123.26 29.9671C122.775 29.9671 122.377 30.1424 122.065 30.4928C121.77 30.8433 121.554 31.2988 121.415 31.8595C121.277 32.4203 121.207 33.0248 121.207 33.6731C121.207 37.2301 122.1 39.0086 123.884 39.0086Z" fill="#96ADBE"/>
<path d="M137.213 40.4542C136.087 40.4542 135.056 40.1914 134.121 39.6657C133.203 39.1225 132.467 38.4041 131.912 37.5105C131.375 36.5993 131.107 35.5918 131.107 34.4879C131.107 33.3665 131.375 32.3589 131.912 31.4653C132.467 30.5717 133.203 29.862 134.121 29.3363C135.056 28.7932 136.087 28.5216 137.213 28.5216C138.356 28.5216 139.387 28.7932 140.305 29.3363C141.223 29.862 141.951 30.5717 142.487 31.4653C143.042 32.3589 143.319 33.3665 143.319 34.4879C143.319 35.5918 143.05 36.5993 142.513 37.5105C141.976 38.4041 141.24 39.1225 140.305 39.6657C139.387 40.1914 138.356 40.4542 137.213 40.4542ZM137.473 39.0086C137.958 39.0086 138.356 38.8422 138.668 38.5092C138.98 38.1763 139.205 37.7383 139.344 37.1951C139.499 36.6344 139.577 36.0386 139.577 35.4078C139.577 31.7807 138.668 29.9671 136.849 29.9671C136.364 29.9671 135.966 30.1424 135.654 30.4928C135.359 30.8433 135.143 31.2988 135.004 31.8595C134.866 32.4203 134.797 33.0248 134.797 33.6731C134.797 37.2301 135.689 39.0086 137.473 39.0086Z" fill="#96ADBE"/>
<path d="M144.8 40.3754C144.731 40.3053 144.696 40.1213 144.696 39.8234C144.696 39.5431 144.731 39.4029 144.8 39.4029C144.939 39.4029 145.138 39.3678 145.398 39.2977C145.657 39.2101 145.9 39.1138 146.125 39.0086C146.35 38.9035 146.472 38.8159 146.489 38.7458C146.61 38.2552 146.671 37.5893 146.671 36.7483V26.3138C146.671 25.9107 146.653 25.5515 146.619 25.2361C146.601 24.9207 146.575 24.6491 146.541 24.4214C146.472 24.141 146.021 24.0008 145.19 24.0008H144.956C144.852 24.0008 144.8 23.8256 144.8 23.4752C144.8 23.1773 144.852 23.0283 144.956 23.0283C145.631 22.9582 146.281 22.8619 146.905 22.7392C147.546 22.6166 148.108 22.4939 148.593 22.3713C149.096 22.2311 149.468 22.1347 149.711 22.0821L150.023 22.0033C150.092 21.9858 150.161 22.0383 150.23 22.161C150.3 22.2661 150.343 22.3625 150.36 22.4501C150.152 23.2386 150.049 24.1235 150.049 25.1047V33.4628C150.516 33.3227 150.811 33.2088 150.932 33.1212C151.278 32.8233 151.642 32.5079 152.023 32.1749C152.422 31.842 152.785 31.5266 153.115 31.2287C153.409 30.9659 153.626 30.7556 153.764 30.5979C153.92 30.4227 153.998 30.2475 153.998 30.0723C153.998 29.827 153.851 29.7043 153.556 29.7043C153.262 29.6868 153.011 29.6605 152.803 29.6255C152.785 29.5554 152.768 29.4765 152.751 29.3889C152.751 29.3013 152.751 29.1962 152.751 29.0735C152.751 28.8282 152.785 28.6968 152.855 28.6793L155.817 28.7055C156.319 28.7055 156.795 28.7055 157.246 28.7055C157.714 28.688 158.138 28.6705 158.519 28.653C158.588 28.6705 158.623 28.7669 158.623 28.9421C158.64 29.0998 158.64 29.2575 158.623 29.4152C158.606 29.5554 158.58 29.6255 158.545 29.6255C158.025 29.6255 157.419 29.827 156.726 30.23C155.531 30.9309 154.344 31.8858 153.166 33.0949C154.518 34.5843 155.609 35.8371 156.44 36.8534C157.289 37.8522 157.878 38.4742 158.207 38.7195C158.432 38.9123 158.727 39.0787 159.091 39.2189C159.454 39.3415 159.714 39.4029 159.87 39.4029C159.957 39.4029 160 39.5693 160 39.9023C160 40.095 159.983 40.2439 159.948 40.3491L156.674 40.1914C156.466 40.1739 156.198 40.1826 155.869 40.2177C155.54 40.2352 155.15 40.2615 154.699 40.2965L153.218 40.3754C153.149 40.3053 153.115 40.1213 153.115 39.8234C153.115 39.5431 153.149 39.4029 153.218 39.4029C153.392 39.4029 153.591 39.3678 153.816 39.2977C154.041 39.2277 154.154 39.1488 154.154 39.0612C154.154 39.0261 154.145 38.9999 154.128 38.9823L150.334 34.593L150.049 34.6719V36.354C150.049 37.5105 150.109 38.3077 150.23 38.7458C150.265 38.8159 150.395 38.9035 150.62 39.0086C150.845 39.1138 151.079 39.2101 151.322 39.2977C151.582 39.3678 151.763 39.4029 151.867 39.4029C151.902 39.4029 151.928 39.473 151.945 39.6131C151.963 39.7533 151.971 39.9023 151.971 40.06C151.971 40.2177 151.954 40.3228 151.919 40.3754C151.815 40.3754 151.616 40.3578 151.322 40.3228C151.027 40.3053 150.681 40.2877 150.282 40.2702C149.901 40.2352 149.538 40.2089 149.191 40.1914C148.845 40.1739 148.568 40.1651 148.36 40.1651C148.152 40.1651 147.866 40.1739 147.502 40.1914C147.156 40.2089 146.792 40.2352 146.411 40.2702C146.03 40.2877 145.692 40.3053 145.398 40.3228C145.103 40.3578 144.904 40.3754 144.8 40.3754Z" fill="#96ADBE"/>
</g>
<defs>
<clipPath id="clip0_50_1794">
<rect width="195" height="67" fill="white"/>
</clipPath>
</defs>
</svg>
